<svg id="Group_4414" data-name="Group 4414" xmlns="http://www.w3.org/2000/svg" width="43.874" height="43.874" viewBox="0 0 43.874 43.874">
  <g id="Path_2435" data-name="Path 2435" fill="none">
    <path d="M21.937,0A21.937,21.937,0,1,1,0,21.937,21.937,21.937,0,0,1,21.937,0Z" stroke="none"/>
    <path d="M 21.93693923950195 3 C 16.87869834899902 3 12.12321853637695 4.96978759765625 8.546497344970703 8.546497344970703 C 4.96978759765625 12.12321853637695 3 16.87869834899902 3 21.93693923950195 C 3 26.99518013000488 4.96978759765625 31.75065994262695 8.546497344970703 35.32737731933594 C 12.12321853637695 38.90409088134766 16.87869834899902 40.87387847900391 21.93693923950195 40.87387847900391 C 26.99518013000488 40.87387847900391 31.75065994262695 38.90409088134766 35.32737731933594 35.32737731933594 C 38.90409088134766 31.75065994262695 40.87387847900391 26.99518013000488 40.87387847900391 21.93693923950195 C 40.87387847900391 16.87869834899902 38.90409088134766 12.12321853637695 35.32737731933594 8.546497344970703 C 31.75065994262695 4.96978759765625 26.99518013000488 3 21.93693923950195 3 M 21.93693923950195 0 C 34.0523681640625 0 43.87387847900391 9.821498870849609 43.87387847900391 21.93693923950195 C 43.87387847900391 34.0523681640625 34.0523681640625 43.87387847900391 21.93693923950195 43.87387847900391 C 9.821498870849609 43.87387847900391 0 34.0523681640625 0 21.93693923950195 C 0 9.821498870849609 9.821498870849609 0 21.93693923950195 0 Z" stroke="none" fill="#e90000"/>
  </g>
  <path id="Path_2436" data-name="Path 2436" d="M2.806,5.126h3V-12.333h-3ZM2.175-17.711a2.042,2.042,0,0,0,2.108,2.075,2.06,2.06,0,0,0,2.174-2.075A2.063,2.063,0,0,0,4.283-19.8,2.046,2.046,0,0,0,2.175-17.711Z" transform="translate(17.538 29.341)" fill="#e90000"/>
</svg>
