<svg id="calendar_1_" data-name="calendar (1)" xmlns="http://www.w3.org/2000/svg" width="26.927" height="28.851" viewBox="0 0 26.927 28.851">
  <path id="Path_2473" data-name="Path 2473" d="M28.446,1.923H25.08V.481A.48.48,0,0,0,24.6,0H21.234a.48.48,0,0,0-.481.481V1.923H10.174V.481A.48.48,0,0,0,9.693,0H6.328a.48.48,0,0,0-.481.481V1.923H2.481A.48.48,0,0,0,2,2.4V28.37a.48.48,0,0,0,.481.481H28.446a.48.48,0,0,0,.481-.481V2.4A.48.48,0,0,0,28.446,1.923ZM21.715.962h2.4V3.847h-2.4V.962ZM6.808.962h2.4V3.847h-2.4V.962ZM2.962,2.885H5.847V4.328a.48.48,0,0,0,.481.481H9.693a.48.48,0,0,0,.481-.481V2.885H20.753V4.328a.48.48,0,0,0,.481.481H24.6a.48.48,0,0,0,.481-.481V2.885h2.885V7.213h-25Zm0,25V8.174h25V27.889Z" transform="translate(-2)" fill="#e90000"/>
  <path id="Path_2474" data-name="Path 2474" d="M23.983,23H11V36.944H29.272V23H23.983Zm-3.366.962h3.366v3.366H20.617Zm3.366,7.693H20.617V28.289h3.366Zm-7.693-3.366h3.366v3.366H16.289Zm0-4.328h3.366v3.366H16.289Zm-4.328,0h3.366v3.366H11.962Zm0,4.328h3.366v3.366H11.962Zm3.366,7.694H11.962V32.617h3.366Zm4.328,0H16.289V32.617h3.366Zm4.328,0H20.617V32.617h3.366Zm4.328,0H24.944V32.617H28.31Zm0-4.328H24.944V28.289H28.31Zm0-7.693v3.366H24.944V23.962Z" transform="translate(-6.672 -11.941)" fill="#e90000"/>
</svg>
