<svg id="passport" xmlns="http://www.w3.org/2000/svg" width="27.598" height="38.751" viewBox="0 0 27.598 38.751">
  <path id="Path_2421" data-name="Path 2421" d="M100.616,127.928a.568.568,0,0,0-.568.568v5.729a1.707,1.707,0,0,1-1.705,1.7H74.723V106.945a.568.568,0,1,0-1.137,0V136.5a.568.568,0,0,0,.568.568H98.343a2.845,2.845,0,0,0,2.842-2.842V128.5A.568.568,0,0,0,100.616,127.928Z" transform="translate(-73.586 -98.316)" fill="#e90000"/>
  <path id="Path_2422" data-name="Path 2422" d="M98.343,0H74.154a.568.568,0,0,0-.568.568V6.356a.568.568,0,0,0,1.137,0V1.137h23.62a1.707,1.707,0,0,1,1.705,1.705V27.907a.568.568,0,1,0,1.137,0V2.842A2.845,2.845,0,0,0,98.343,0Z" transform="translate(-73.586)" fill="#e90000"/>
  <path id="Path_2423" data-name="Path 2423" d="M155.4,84.261a.568.568,0,0,0,1.128-.142,8.778,8.778,0,0,0-1.022-3.147q-.129-.234-.272-.46a8.8,8.8,0,0,0-6.405-4.064,8.85,8.85,0,0,0-8.975,4.776.56.56,0,0,0-.024.055,8.837,8.837,0,0,0,0,7.906.559.559,0,0,0,.024.055,8.854,8.854,0,0,0,15.785,0c0-.009.008-.019.013-.029a8.8,8.8,0,0,0,.843-2.632.568.568,0,1,0-1.124-.172,7.656,7.656,0,0,1-.532,1.855,18.02,18.02,0,0,0-2.871-.76,18.416,18.416,0,0,0,0-4.541,18.026,18.026,0,0,0,2.873-.761A7.656,7.656,0,0,1,155.4,84.261Zm-7.653,8.685c-.767,0-1.557-.763-2.166-2.094a11.034,11.034,0,0,1-.752-2.4,23.259,23.259,0,0,1,5.837,0,11.034,11.034,0,0,1-.752,2.4C149.3,92.183,148.51,92.947,147.743,92.947Zm-3.2-1.621a7.393,7.393,0,0,0,.68,1.2,7.753,7.753,0,0,1-4.044-3.243,17.04,17.04,0,0,1,2.522-.655A12.222,12.222,0,0,0,144.544,91.326Zm-3.893-3.062a7.709,7.709,0,0,1,0-6.061,18.02,18.02,0,0,0,2.871.76,18.416,18.416,0,0,0,0,4.541A18.036,18.036,0,0,0,140.65,88.264Zm.529-7.078a7.754,7.754,0,0,1,4.044-3.243,7.4,7.4,0,0,0-.68,1.2,12.22,12.22,0,0,0-.842,2.7A17.034,17.034,0,0,1,141.18,81.185Zm4.4-1.572c.61-1.331,1.4-2.094,2.166-2.094s1.557.763,2.166,2.094a11.033,11.033,0,0,1,.752,2.4,23.259,23.259,0,0,1-5.837,0A11.032,11.032,0,0,1,145.577,79.613Zm8.732,9.668a7.7,7.7,0,0,1-4.045,3.24,7.4,7.4,0,0,0,.678-1.2,12.22,12.22,0,0,0,.842-2.7A17.019,17.019,0,0,1,154.309,89.281Zm-3.34-4.048a17.2,17.2,0,0,1-.127,2.095,24.4,24.4,0,0,0-6.2,0,17.4,17.4,0,0,1,0-4.189,24.4,24.4,0,0,0,6.2,0A17.2,17.2,0,0,1,150.969,85.233Zm.816-3.392a12.224,12.224,0,0,0-.842-2.7,7.394,7.394,0,0,0-.678-1.2,7.753,7.753,0,0,1,4.044,3.24A17.049,17.049,0,0,1,151.785,81.841Z" transform="translate(-133.944 -70.595)" fill="#e90000"/>
  <path id="Path_2424" data-name="Path 2424" d="M139.461,355.108h16.564a.568.568,0,1,0,0-1.137H139.461a.568.568,0,1,0,0,1.137Z" transform="translate(-133.944 -327.148)" fill="#e90000"/>
  <path id="Path_2425" data-name="Path 2425" d="M168.925,396.683a.568.568,0,0,0,0,1.137h12.1a.568.568,0,0,0,0-1.137Z" transform="translate(-161.175 -366.623)" fill="#e90000"/>
</svg>
