<svg id="earth" xmlns="http://www.w3.org/2000/svg" width="74.048" height="74.05" viewBox="0 0 74.048 74.05">
  <g id="Group_4305" data-name="Group 4305">
    <path id="Path_2475" data-name="Path 2475" d="M35.879,11.533l.072.55-.824.171-.11,1.171H36l1.313-.126.678-.806-.72-.28-.394-.454-.592-.959L36,9.442l-1.113.227-.312.478v.539l.536.367Z" transform="translate(18.08 4.937)" fill="#e90000"/>
    <path id="Path_2476" data-name="Path 2476" d="M35.559,11.46l.059-.734-.653-.282-.914.212-.678,1.087v.705h.79Z" transform="translate(17.45 5.461)" fill="#e90000"/>
    <path id="Path_2477" data-name="Path 2477" d="M22.862,13.161l-.2.518h-.973v.5h.231s.014.107.034.247l.6-.05.373-.231.1-.468.483-.041.19-.393-.443-.091Z" transform="translate(11.34 6.877)" fill="#e90000"/>
    <path id="Path_2478" data-name="Path 2478" d="M20.825,13.892l-.038.492.705-.059.073-.493-.423-.334Z" transform="translate(10.869 7.058)" fill="#e90000"/>
    <path id="Path_2479" data-name="Path 2479" d="M74.04,36.642c-.011-1.083-.065-2.158-.168-3.216a36.8,36.8,0,0,0-2.45-10.081c-.094-.236-.181-.475-.282-.708A37.068,37.068,0,0,0,64.2,11.907c-.19-.2-.384-.405-.577-.6-.547-.568-1.109-1.122-1.69-1.654a36.949,36.949,0,0,0-49.971.157,37.464,37.464,0,0,0-4.234,4.622A37.007,37.007,0,1,0,69.991,53.844a36.673,36.673,0,0,0,3.023-8.153c.175-.726.326-1.456.457-2.194a37.025,37.025,0,0,0,.577-6.472C74.05,36.9,74.042,36.77,74.04,36.642Zm-6.969-14.8.215-.241c.282.547.545,1.1.8,1.666l-.35-.014-.661.091Zm-5.35-6.46.006-1.654q.873.925,1.678,1.91l-.667.993-2.332-.021-.146-.486Zm-44.663-4.11v-.062H17.8l.064-.254h1.214v.53l-.349.466H17.058l0-.679Zm1.185,1.652s.742-.126.806-.126,0,.74,0,.74l-1.672.105-.318-.381Zm51.187,14.7H66.722l-1.651-1.229-1.738.169v1.06h-.55l-.594-.423-3.009-.763V24.488l-3.813.3-1.182.635H52.672l-.742-.075-1.838,1.02v1.92L46.335,31l.312,1.157h.761l-.2,1.1-.536.2-.029,2.881,3.247,3.7H51.3l.085-.225h2.54l.732-.678H56.1l.79.792,2.147.222L58.755,43l2.383,4.208-1.255,2.4.085,1.13.988.985v2.717l1.3,1.745v2.257h1.121A33.965,33.965,0,0,1,5.758,23.726v-1.06l1.215-1.476Q7.606,20,8.33,18.861l.055.617-1.41,1.713c-.437.825-.845,1.669-1.215,2.536V25.66l1.412.679v2.688l1.354,2.31,1.1.169.142-.792-1.3-2-.254-1.948h.761l.321,2,1.878,2.74-.484.885,1.194,1.826,2.965.734v-.48l1.186.169-.113.847.932.171,1.439.393,2.033,2.316,2.6.2.254,2.118L21.4,41.925l-.084,1.891-.254,1.157,2.571,3.218.2,1.1s.932.253,1.046.253,2.089,1.5,2.089,1.5v5.816l.705.2-.48,2.683,1.186,1.582-.219,2.659,1.567,2.755,2.012,1.757,2.022.037.2-.65-1.486-1.252.085-.621.267-.761.056-.777-1.005-.03-.507-.637L32.2,63l.113-.606-.932-.267.055-.563,1.328-.2,2.019-.97.678-1.243,2.118-2.711-.481-2.12.65-1.128,1.948.059,1.311-1.039.423-4.09,1.454-1.847.254-1.186-1.326-.425-.876-1.436-2.992-.03-2.373-.9L35.46,40.6l-.792-1.384-2.146-.032-1.24-1.946-1.1-.538-.056.594-2,.119-.734-1.022L25.3,35.966l-1.722,1.99-2.711-.46-.2-3.055L18.689,34.1l.793-1.5-.227-.86-2.6,1.738-1.636-.2L14.437,32l.356-1.317.9-1.661,2.076-1.051,4.008,0L21.768,29.2l1.441.67-.114-2.089,1.039-1.045,2.1-1.377.143-.969,2.089-2.175,2.222-1.23-.2-.161,1.5-1.416.551.146.253.317.571-.634.14-.062-.626-.088-.635-.212v-.609l.337-.276h.742l.34.149.294.594.359-.055v-.052l.1.035,1.042-.16.148-.509.594.149v.551l-.551.379h0l.081.6,1.887.582,0,.023.434-.037.029-.818-1.5-.681-.085-.393,1.241-.423.055-1.188-1.3-.79-.085-2-1.779.874h-.649l.171-1.524-2.421-.571-1,.757v2.309l-1.8.571-.722,1.5-.783.126V16.068l-1.693-.235-.847-.551-.341-1.247,3.029-1.773,1.482-.451.149,1,.825-.043.064-.5.863-.123.015-.175-.372-.154-.085-.53,1.061-.09.641-.667.035-.049.008,0,.195-.2L34.7,10l.987.838L33.1,12.212l3.292.777.426-1.1h1.439l.509-.959-1.017-.254V9.46l-3.19-1.413-2.2.254-1.243.65.085,1.581-1.3-.2-.2-.874L30.94,8.33l-2.258-.113-.649.2-.282.761.847.143-.169.847-1.439.085-.225.563-2.088.058a5.722,5.722,0,0,0-.142-1.185c-.084,0,1.637-.029,1.637-.029l1.244-1.215-.679-.34-.9.877-1.5-.085-.9-1.243h-1.92l-2,1.5h1.837l.168.538-.477.443,2.033.056.311.734-2.289-.085-.111-.565L19.54,9.96l-.763-.423-1.713.014a33.882,33.882,0,0,1,42.392,1.984l-.4.722-1.567.614-.661.717.152.836.809.113.487,1.218,1.395-.562.23,1.629h-.42l-1.145-.169-1.27.213L55.833,18.6l-1.757.276-.254,1.5.742.175-.215.967-1.745-.35-1.6.35-.34.891.277,1.87.94.44,1.576-.009,1.064-.1.324-.847,1.663-2.161,1.095.224,1.078-.975.2.761,2.653,1.789-.324.436-1.2-.064.46.652.736.161.862-.359L62.054,23.2l.382-.192-.308-.326-1.77-.987-.466-1.311h1.471l.471.466L63.1,21.942l.053,1.32,1.313,1.4.489-1.916.909-.5.171,1.567.888.975,1.771-.03q.514,1.323.92,2.694Zm-49.236-10.8.889-.423.8.192-.277,1.08-.868.276Zm4.719,2.542v.7H22.883l-.761-.212.19-.487.976-.4h1.334v.4Zm.935.975v.678l-.509.327-.634.117V20.338Zm-.573-.276v-.806l.7.637Zm.318,1.629v.659l-.486.487h-1.08l.169-.74.51-.044.105-.254Zm-2.689-1.354h1.122L22.589,22.35l-.594-.318.128-.847Zm4.6,1.122v.658h-1.08l-.3-.426V21.08h.085Zm-1-.9.308-.323.519.323-.416.343Zm43.478,8.782.107-.125c.044.192.091.384.134.579Z" fill="#e90000"/>
    <path id="Path_2480" data-name="Path 2480" d="M3.782,15.391v1.06c.37-.865.778-1.709,1.215-2.536Z" transform="translate(1.977 7.276)" fill="#e90000"/>
  </g>
</svg>
