<svg xmlns="http://www.w3.org/2000/svg" width="23.067" height="43.251" viewBox="0 0 23.067 43.251">
  <g id="Element" transform="translate(-372 -260)">
    <path id="Path_2498" data-name="Path 2498" d="M469.78,464h-5.046a.721.721,0,0,0,0,1.442h5.046a.721.721,0,0,0,0-1.442Z" transform="translate(-83.724 -185.619)" fill="#e90000"/>
    <path id="Path_2499" data-name="Path 2499" d="M392.184,270.813h-3.6V260.721a.721.721,0,0,0-.721-.721h-8.65a.721.721,0,0,0-.721.721v10.092h-3.6A2.886,2.886,0,0,0,372,273.7V298.2A2.888,2.888,0,0,0,374.163,301v.87a1.383,1.383,0,0,0,1.383,1.383h0a1.383,1.383,0,0,0,1.383-1.383v-.779h13.208v.779a1.383,1.383,0,0,0,1.383,1.383h0a1.383,1.383,0,0,0,1.383-1.383V301a2.889,2.889,0,0,0,2.163-2.792V273.7A2.886,2.886,0,0,0,392.184,270.813Zm-12.254-9.371h7.208v2.163H379.93Zm0,3.6h7.208v5.767H379.93Zm13.7,33.159a1.444,1.444,0,0,1-1.442,1.442h-17.3a1.444,1.444,0,0,1-1.442-1.442V279.274a11.528,11.528,0,0,0,20.184,0Zm-10.092-14.417A10.1,10.1,0,0,1,373.442,273.7a1.443,1.443,0,0,1,1.442-1.442h17.3a1.443,1.443,0,0,1,1.442,1.442,10.1,10.1,0,0,1-10.092,10.092Z" fill="#e90000"/>
  </g>
</svg>
