<svg id="card" xmlns="http://www.w3.org/2000/svg" width="67.149" height="45.077" viewBox="0 0 67.149 45.077">
  <path id="Path_2426" data-name="Path 2426" d="M61.346,0H5.8A5.81,5.81,0,0,0,0,5.8V39.273a5.81,5.81,0,0,0,5.8,5.8H61.346a5.81,5.81,0,0,0,5.8-5.8V5.8A5.81,5.81,0,0,0,61.346,0Zm3.81,39.273a3.814,3.814,0,0,1-3.81,3.81H5.8a3.814,3.814,0,0,1-3.809-3.81V5.8A3.814,3.814,0,0,1,5.8,1.994H61.346a3.814,3.814,0,0,1,3.81,3.81Zm0,0" fill="#e90000"/>
  <path id="Path_2427" data-name="Path 2427" d="M67.732,60.832H44.6a1,1,0,0,0-1,1v2.393a1,1,0,0,0,1.995,0v-1.4H66.735V87.16H45.593V68.212a1,1,0,1,0-1.995,0V88.157a1,1,0,0,0,1,1H67.732a1,1,0,0,0,1-1V61.829A1,1,0,0,0,67.732,60.832Zm0,0" transform="translate(-37.88 -52.854)" fill="#e90000"/>
  <path id="Path_2428" data-name="Path 2428" d="M290.617,78.465h-25a1,1,0,1,0,0,1.994h25a1,1,0,0,0,0-1.994Zm0,0" transform="translate(-229.916 -68.174)" fill="#e90000"/>
  <path id="Path_2429" data-name="Path 2429" d="M419.23,133.625h-5.585a1,1,0,0,0,0,1.994h5.585a1,1,0,0,0,0-1.994Zm0,0" transform="translate(-358.529 -116.1)" fill="#e90000"/>
  <path id="Path_2430" data-name="Path 2430" d="M265.619,135.619h15.424a1,1,0,1,0,0-1.994H265.619a1,1,0,1,0,0,1.994Zm0,0" transform="translate(-229.916 -116.1)" fill="#e90000"/>
  <path id="Path_2431" data-name="Path 2431" d="M290.617,188.785h-25a1,1,0,1,0,0,1.994h25a1,1,0,0,0,0-1.994Zm0,0" transform="translate(-229.916 -164.026)" fill="#e90000"/>
  <path id="Path_2432" data-name="Path 2432" d="M279.181,243.945H265.619a1,1,0,1,0,0,1.994h13.563a1,1,0,0,0,0-1.994Zm0,0" transform="translate(-229.916 -211.952)" fill="#e90000"/>
  <path id="Path_2433" data-name="Path 2433" d="M86.18,119.319a1,1,0,0,0,1.995,0,4.986,4.986,0,0,1,9.973,0,1,1,0,0,0,1.994,0,6.983,6.983,0,0,0-3.389-5.984,6.981,6.981,0,1,0-7.183,0A6.983,6.983,0,0,0,86.18,119.319Zm1.995-11.968a4.986,4.986,0,1,1,4.986,4.986A4.992,4.992,0,0,1,88.175,107.352Zm0,0" transform="translate(-74.877 -87.207)" fill="#e90000"/>
</svg>
