<svg xmlns="http://www.w3.org/2000/svg" width="29.212" height="29.212" viewBox="0 0 29.212 29.212">
  <g id="phone-in-talk" transform="translate(1 1)">
    <path id="Path_2409" data-name="Path 2409" d="M28.7,21.9a17.121,17.121,0,0,1-5.442-.907,1.862,1.862,0,0,0-1.512.3L18.42,24.618a23.536,23.536,0,0,1-9.978-9.978l3.326-3.326a1.2,1.2,0,0,0,.3-1.512,20.331,20.331,0,0,1-.756-5.291A1.428,1.428,0,0,0,9.8,3H4.512A1.428,1.428,0,0,0,3,4.512a25.679,25.679,0,0,0,25.7,25.7A1.428,1.428,0,0,0,30.212,28.7V23.409A1.428,1.428,0,0,0,28.7,21.9Z" transform="translate(-3 -3)" fill="none" stroke="#e90000" stroke-width="2"/>
  </g>
</svg>
