<svg xmlns="http://www.w3.org/2000/svg" width="338.782" height="47.782" viewBox="0 0 338.782 47.782">
  <g id="Group_4212" data-name="Group 4212" transform="translate(-765.607 -4414.18)">
    <g id="g4158" transform="translate(872.607 4420.18)">
      <path id="polygon9" d="M442.372,145.013h-8.865l5.545-34.286h8.865Z" transform="translate(-394.949 -110.105)" fill="#00579f"/>
      <path id="path11" d="M591.772,106.507a21.847,21.847,0,0,0-7.951-1.46c-8.755,0-14.92,4.669-14.958,11.343-.073,4.924,4.414,7.66,7.77,9.3,3.43,1.678,4.6,2.773,4.6,4.269-.035,2.3-2.772,3.356-5.324,3.356a17.644,17.644,0,0,1-8.318-1.824l-1.167-.548-1.241,7.7a26.982,26.982,0,0,0,9.887,1.825c9.3,0,15.358-4.6,15.43-11.709.035-3.9-2.334-6.894-7.441-9.338-3.1-1.569-5-2.627-5-4.232.036-1.459,1.606-2.954,5.106-2.954a15.062,15.062,0,0,1,6.6,1.313l.8.364,1.206-7.4Z" transform="translate(-512.211 -105.048)" fill="#00579f"/>
      <path id="path13" d="M804.238,132.867c.73-1.97,3.539-9.593,3.539-9.593-.037.073.729-2.006,1.166-3.283l.62,2.954s1.679,8.207,2.043,9.921Zm10.943-22.14h-6.857c-2.115,0-3.721.62-4.634,2.845l-13.168,31.441h9.3s1.531-4.232,1.861-5.143h11.382c.255,1.2,1.058,5.143,1.058,5.143h8.208l-7.152-34.286Z" transform="translate(-712.894 -110.105)" fill="#00579f"/>
      <path id="path15" d="M187.723,110.727l-8.682,23.38-.949-4.742c-1.605-5.471-6.639-11.416-12.257-14.372l7.952,29.983h9.375l13.935-34.25h-9.374Z" transform="translate(-156.57 -110.105)" fill="#00579f"/>
      <path id="path17" d="M95.575,110.727H81.312l-.146.693c11.126,2.845,18.5,9.7,21.523,17.947l-3.1-15.758c-.51-2.19-2.079-2.81-4.013-2.882Z" transform="translate(-81.166 -110.105)" fill="#faa61a"/>
    </g>
    <g id="American_Express_logo__2018_" data-name="American_Express_logo_(2018)" transform="translate(1056.607 4414.18)">
      <path id="Path_2296" data-name="Path 2296" d="M47.782,25.88V.02H0V47.8H47.782V33.861c-.106,0,0-7.981,0-7.981" transform="translate(0 -0.02)" fill="#006fcf"/>
      <path id="Path_2297" data-name="Path 2297" d="M41.929,22.327h3.618V13.92H41.61v1.171l-.745-1.171H37.46v1.49l-.639-1.49H30.542c-.213,0-.426.106-.639.106s-.319.106-.532.213-.319.106-.532.213V13.92H10.855L10.323,15.3,9.791,13.92H5.534v1.49L4.9,13.92H1.49L0,17.538v4.789H2.448l.426-1.171h.851l.426,1.171H22.88V21.263l.745,1.064H28.84v-.639c.106.106.319.106.426.213s.319.106.426.213a1.35,1.35,0,0,0,.639.106h3.831l.426-1.171h.851l.426,1.171h5.215V21.157l.851,1.171Zm5.853,10.642V25.094H18.517l-.745,1.064-.745-1.064H8.514V33.5h8.514l.745-1.064.745,1.064h5.321V31.692h-.213a5.155,5.155,0,0,0,1.916-.319v2.235h3.831V32.543l.745,1.064H45.973a9.056,9.056,0,0,0,1.809-.639Z" transform="translate(0 0.872)" fill="#fff"/>
      <path id="Path_2298" data-name="Path 2298" d="M45.973,30.864H43.1v1.171h2.767a1.762,1.762,0,0,0,1.916-1.809,1.489,1.489,0,0,0-1.7-1.6H44.8a.532.532,0,1,1,0-1.064H47.25l.532-1.171H44.909a1.741,1.741,0,0,0-1.916,1.7,1.489,1.489,0,0,0,1.7,1.6h1.277a.5.5,0,0,1,.532.532c.106.426-.106.639-.532.639Zm-5.215,0H37.885v1.171h2.767a1.762,1.762,0,0,0,1.916-1.809,1.489,1.489,0,0,0-1.7-1.6H39.588a.532.532,0,1,1,0-1.064h2.448l.532-1.171H39.694a1.741,1.741,0,0,0-1.916,1.7,1.489,1.489,0,0,0,1.7,1.6h1.277a.5.5,0,0,1,.532.532.5.5,0,0,1-.532.639Zm-3.725-3.405V26.288h-4.47v5.64h4.47V30.757H33.841V29.587h3.086V28.416H33.841V27.352h3.193v.106Zm-7.237,0c.532,0,.745.319.745.639s-.213.639-.745.639H28.2V27.352l1.6.106Zm-1.6,2.448h.639l1.7,2.022h1.6L30.223,29.8a1.706,1.706,0,0,0,1.49-1.7A1.762,1.762,0,0,0,29.8,26.288h-2.98v5.64h1.277l.106-2.022ZM24.8,28.2a.672.672,0,0,1-.745.745h-1.7v-1.49h1.6a.759.759,0,0,1,.851.745Zm-3.725-1.916v5.64h1.277V30.012h1.7A1.873,1.873,0,0,0,26.073,28.1a1.844,1.844,0,0,0-1.916-1.916l-3.086.106Zm-1.916,5.64h1.6l-2.235-2.873,2.235-2.767h-1.6L17.772,28.1l-1.383-1.809h-1.6l2.235,2.767-2.235,2.767h1.6l1.383-1.809Zm-4.789-4.47V26.288H9.9v5.64h4.47V30.757H11.174V29.587H14.26V28.416H11.174V27.352h3.193Zm25.86-10,2.235,3.405h1.6V15.22H42.781v3.725l-.319-.532L40.439,15.22h-1.7v5.64h1.277V17.029l.213.426Zm-5.534-.106.426-1.171.426,1.171.532,1.277H34.161l.532-1.277Zm2.235,3.512h1.383l-2.448-5.64h-1.7l-2.448,5.64H33.1l.532-1.171H36.4l.532,1.171Zm-5.959,0L31.5,19.69h-.319a1.428,1.428,0,0,1-1.49-1.6v-.106a1.428,1.428,0,0,1,1.49-1.6h1.383V15.22h-1.49a2.542,2.542,0,0,0-2.66,2.767v.106A2.465,2.465,0,0,0,30.968,20.86Zm-4.789,0h1.277V15.326H26.179Zm-2.767-4.47c.532,0,.745.319.745.639s-.213.639-.745.639h-1.6V16.284l1.6.106Zm-1.6,2.448h.639l1.7,2.022h1.6l-1.916-2.128a1.706,1.706,0,0,0,1.49-1.7,1.762,1.762,0,0,0-1.916-1.809h-2.98v5.64H21.71l.106-2.022Zm-2.341-2.448V15.22h-4.47v5.64h4.47V19.69H16.282V18.519h3.086V17.348H16.282V16.284h3.193ZM9.791,20.86h1.171l1.6-4.576V20.86h1.277V15.22H11.706l-1.277,3.831L9.152,15.22H7.024v5.64H8.3V16.284l1.49,4.576ZM2.873,17.348,3.3,16.178l.426,1.171.532,1.277H2.341l.532-1.277ZM5.108,20.86H6.492L4.044,15.22h-1.6L0,20.86H1.383l.532-1.171H4.682l.426,1.171Z" transform="translate(0 0.956)" fill="#006fcf"/>
    </g>
    <g id="_Group_" data-name="&lt;Group&gt;" transform="translate(765.607 4419.18)">
      <rect id="Rectangle_4363" data-name="Rectangle 4363" width="16.112" height="28.956" transform="translate(21.736 3.938)" fill="#ff5f00"/>
      <path id="_Path_" data-name="&lt;Path&gt;" d="M37.914,33.571a18.383,18.383,0,0,1,7.033-14.481,18.414,18.414,0,1,0,0,28.956A18.383,18.383,0,0,1,37.914,33.571Z" transform="translate(-15.155 -15.152)" fill="#eb001b"/>
      <path id="Path_2294" data-name="Path 2294" d="M103.195,33.569A18.414,18.414,0,0,1,73.4,48.045a18.414,18.414,0,0,0,0-28.956,18.414,18.414,0,0,1,29.795,14.475Z" transform="translate(-43.608 -15.151)" fill="#f79e1b"/>
      <path id="Path_2295" data-name="Path 2295" d="M127.858,72.776v-.593h.24V72.06h-.609v.123h.261v.593Zm1.182,0V72.06h-.184l-.215.512-.215-.512h-.164v.716h.133v-.537l.2.465h.138l.2-.465v.542Z" transform="translate(-70.031 -42.951)" fill="#f79e1b"/>
    </g>
  </g>
</svg>
